<?xml version="1.0" encoding="utf-8"?>
<svg viewBox="1.381 0 80.24 69.788" style="enable-background:new 0 0 100 100;" xmlns="http://www.w3.org/2000/svg">
  <path d="M 42.313 0.562 C 42.303 0.542 42.273 0.532 42.263 0.512 C 42.093 0.262 41.823 0.092 41.503 0.092 C 41.183 0.092 40.913 0.262 40.743 0.512 C 40.733 0.532 40.703 0.542 40.693 0.562 L 1.623 68.212 C 1.453 68.502 1.453 68.862 1.623 69.152 C 1.793 69.442 2.103 69.622 2.443 69.622 L 80.563 69.622 C 80.903 69.622 81.213 69.442 81.383 69.152 C 81.553 68.862 81.553 68.502 81.383 68.212 L 42.313 0.562 Z M 42.433 4.552 L 76.683 63.872 L 74.393 63.872 L 42.433 8.522 L 42.433 4.552 Z M 24.163 56.142 L 25.303 54.162 L 29.223 54.162 L 53.753 54.162 L 57.673 54.162 L 58.813 56.142 L 24.163 56.142 Z M 60.453 58.032 L 64.373 58.032 L 65.513 60.012 L 17.463 60.012 L 18.603 58.032 L 22.523 58.032 L 60.453 58.032 Z M 30.863 52.272 L 32.003 50.292 L 35.923 50.292 L 47.053 50.292 L 50.973 50.292 L 52.113 52.272 L 30.863 52.272 Z M 35.383 48.412 L 33.093 48.412 L 40.553 35.492 L 40.553 39.452 L 35.383 48.412 Z M 28.683 52.272 L 26.393 52.272 L 40.553 27.762 L 40.553 31.722 L 28.683 52.272 Z M 21.983 56.142 L 19.693 56.142 L 40.553 20.022 L 40.553 23.982 L 21.983 56.142 Z M 15.283 60.012 L 12.993 60.012 L 40.543 12.292 L 40.543 16.252 L 15.283 60.012 Z M 15.833 61.892 L 67.153 61.892 L 71.073 61.892 L 72.213 63.872 L 10.763 63.872 L 11.903 61.892 L 15.833 61.892 Z M 42.433 12.292 L 69.983 60.012 L 67.693 60.012 L 42.433 16.252 L 42.433 12.292 Z M 42.433 20.022 L 63.293 56.142 L 61.003 56.142 L 42.433 23.982 L 42.433 20.022 Z M 42.433 27.762 L 56.593 52.272 L 54.303 52.272 L 42.433 31.722 L 42.433 27.762 Z M 42.433 35.492 L 49.893 48.412 L 47.603 48.412 L 42.433 39.462 L 42.433 35.492 Z M 41.493 41.592 L 45.423 48.402 L 37.553 48.402 L 41.493 41.592 Z M 40.553 4.552 L 40.553 8.512 L 8.593 63.872 L 6.303 63.872 L 40.553 4.552 Z M 4.063 67.742 L 5.203 65.762 L 9.123 65.762 L 73.843 65.762 L 77.763 65.762 L 78.903 67.742 L 4.063 67.742 Z" style="paint-order: fill; fill-rule: nonzero; fill: rgb(255, 211, 0);"/>
</svg>